<svg width="165" height="48" viewBox="0 0 165 48" fill="none" xmlns="http://www.w3.org/2000/svg">
<path d="M62.604 16.2C62.604 14.22 63.756 13.428 65.7 13.428C66.6 13.428 67.212 13.608 67.752 13.968L68.436 10.692C67.68 10.116 66.312 9.756 64.692 9.756C60.66 9.756 57.888 11.772 57.888 15.84V18H54.756V21.672H57.888V36H62.82V21.672H68.292V18H62.604V16.2ZM87.0362 33.012C86.1002 33.012 85.7042 32.58 85.7042 31.644V24.264C85.7042 19.8 82.5362 17.64 77.5322 17.64C73.1402 17.64 70.4402 19.584 69.6842 22.644L73.6082 24.3C74.1482 22.032 75.6602 21.24 77.7482 21.24C79.6922 21.24 80.8082 22.464 80.8082 24.372V25.236L76.4882 26.064C71.6642 26.964 69.4682 28.944 69.4682 31.752C69.4682 34.776 71.6282 36.36 75.0482 36.36C78.0722 36.36 80.3402 35.424 81.4202 33.66C81.9242 35.604 83.4002 36.36 85.5602 36.36C86.4602 36.36 87.2522 36.18 87.9002 35.856L88.2602 32.868C87.9002 32.976 87.4682 33.012 87.0362 33.012ZM76.5962 33.012C75.3002 33.012 74.5442 32.4 74.5442 31.248C74.5442 30.06 75.3722 29.484 76.9562 29.124L80.8082 28.26V30.132C80.8082 32.04 78.4682 33.012 76.5962 33.012ZM96.1161 10.116H91.1841V30.996C91.1841 34.74 92.7321 36.36 96.2241 36.36C97.4121 36.36 98.7801 36.072 99.5721 35.604L100.004 32.184C99.2121 32.472 98.7081 32.58 97.8801 32.58C96.5481 32.58 96.1161 31.968 96.1161 30.276V10.116ZM107.612 10.116H102.68V30.996C102.68 34.74 104.228 36.36 107.72 36.36C108.908 36.36 110.276 36.072 111.068 35.604L111.5 32.184C110.708 32.472 110.204 32.58 109.376 32.58C108.044 32.58 107.612 31.968 107.612 30.276V10.116ZM122.528 17.64C116.732 17.64 113.312 21.132 113.312 27C113.312 32.868 116.732 36.36 122.528 36.36C128.324 36.36 131.744 32.868 131.744 27C131.744 21.132 128.324 17.64 122.528 17.64ZM122.528 21.312C125.3 21.312 126.812 23.184 126.812 27C126.812 30.816 125.3 32.688 122.528 32.688C119.756 32.688 118.244 30.816 118.244 27C118.244 23.184 119.756 21.312 122.528 21.312ZM158.99 18L155.39 32.04L151.358 18H146.498L142.466 32.04L138.866 18H133.646L139.37 36H145.058L148.838 23.292L152.762 36H158.486L164.21 18H158.99Z" fill="#04091E"/>
<path d="M23 47C35.7025 47 46 36.7026 46 24C46 11.2974 35.7025 1 23 1C10.2974 1 0 11.2974 0 24C0 36.7026 10.2974 47 23 47Z" fill="#2662FA"/>
<mask id="mask0_123_2730" style="mask-type:luminance" maskUnits="userSpaceOnUse" x="23" y="11" width="13" height="11">
<path d="M25.0222 13.8576H30.0848C32.0566 13.8576 33.111 16.2748 31.676 17.7139C31.2667 18.1243 30.7031 18.3789 30.0848 18.3789L28.7201 18.3791L28.2096 18.3789L28.2099 18.3791H23.0957C24.5006 18.3791 25.7769 18.9545 26.7012 19.8814C27.094 20.275 27.423 20.7324 27.6721 21.2364H30.0157H30.018H30.0202H30.0223H30.0245H30.0266H30.0289H30.0311H30.0332H30.0354H30.0375H30.0397H30.042H30.0443H30.0466H30.0488H30.0509H30.0531H30.0554H30.0577H30.06H30.0623H30.0645H30.0668H30.0691H30.0714H30.0737H30.0757H30.078H30.0802H30.0823H30.0845H30.0868C30.2101 21.2364 30.3323 21.2319 30.4533 21.2235L30.4513 21.2202C34.8097 20.889 36.7778 15.5961 33.6926 12.5025C32.7683 11.5756 31.4917 11 30.0871 11H25.0245H24.7929V13.8573H25.0222V13.8576Z" fill="white"/>
</mask>
<g mask="url(#mask0_123_2730)">
<path d="M36.7757 11H23.0957V21.2364H36.7757V11Z" fill="url(#paint0_linear_123_2730)"/>
</g>
<mask id="mask1_123_2730" style="mask-type:luminance" maskUnits="userSpaceOnUse" x="11" y="11" width="15" height="6">
<path d="M25.0229 13.8573V11H16.107C13.0748 11 11.025 13.4982 11.0002 16.1185C10.9997 16.1779 11.0002 16.2373 11.0017 16.2969H13.8604C13.855 16.2375 13.852 16.1781 13.8513 16.1185C13.8459 15.5611 14.0494 14.9903 14.5156 14.5228C14.9249 14.1124 15.488 13.8576 16.1068 13.8576H25.0229V13.8573Z" fill="white"/>
</mask>
<g mask="url(#mask1_123_2730)">
<path d="M25.0232 11H11V16.2966H25.0232V11Z" fill="white"/>
</g>
<mask id="mask2_123_2730" style="mask-type:luminance" maskUnits="userSpaceOnUse" x="11" y="25" width="9" height="12">
<path d="M19.5367 28.621V25.7637H16.1058C13.296 25.7637 11.002 28.0642 11.002 30.8816C11.002 33.9214 13.4931 35.9778 16.1058 36.0026C16.164 36.0031 16.2219 36.0029 16.2804 36.0014V33.1347C16.2224 33.14 16.1642 33.1428 16.1058 33.1435C15.55 33.1489 14.981 32.9451 14.5146 32.4773C13.0968 31.0555 14.1048 28.621 16.1058 28.621H18.3603H19.5367Z" fill="white"/>
</mask>
<g mask="url(#mask2_123_2730)">
<path d="M19.5364 25.7637H11.002V36.0034H19.5364V25.7637Z" fill="white"/>
</g>
<mask id="mask3_123_2730" style="mask-type:luminance" maskUnits="userSpaceOnUse" x="11" y="16" width="12" height="6">
<path d="M22.3465 18.3798H16.1068C14.7758 18.3798 13.8622 17.278 13.8513 16.1191H11.0002C10.9883 17.3854 11.4495 18.68 12.5013 19.7348C13.4256 20.6617 14.7019 21.2374 16.1068 21.2374H22.3465H22.4518V18.38H22.3465V18.3798Z" fill="white"/>
</mask>
<g mask="url(#mask3_123_2730)">
<path d="M22.452 16.1191H10.9883V21.2371H22.452V16.1191Z" fill="white"/>
</g>
<mask id="mask4_123_2730" style="mask-type:luminance" maskUnits="userSpaceOnUse" x="19" y="18" width="10" height="11">
<path d="M24.6877 25.0891C24.2784 25.4995 23.7153 25.7544 23.0968 25.7544H19.5383H19.4492V28.6117H19.5383H21.2112H23.0968C27.0257 28.6117 29.2792 24.4389 27.6827 21.2326H27.6734C27.4243 20.7288 27.0951 20.2714 26.7025 19.8775C25.7871 18.9595 24.526 18.3862 23.1367 18.3753L23.0968 18.375H22.3474V21.2323H23.0968C25.0678 21.2326 26.1237 23.6491 24.6877 25.0891Z" fill="white"/>
</mask>
<g mask="url(#mask4_123_2730)">
<path d="M29.279 18.375H19.4492V28.6114H29.279V18.375Z" fill="white"/>
</g>
<mask id="mask5_123_2730" style="mask-type:luminance" maskUnits="userSpaceOnUse" x="16" y="28" width="6" height="8">
<path d="M18.3618 30.8712V30.8732V30.875V30.877V30.8791V30.8811V30.8829L18.3615 30.8907V30.8928V30.8948L18.3613 30.9047V30.9067L18.361 30.9146V30.9164V30.9184V30.9202L18.3608 30.9222V30.9242V30.926V30.9281L18.3605 30.9301V30.9319V30.9331L18.3603 30.9339V30.9359V30.9377L18.36 30.9397V30.9418V30.9435L18.3597 30.9456V30.9473L18.3595 30.9494V30.9514L18.3592 30.9532V30.9552L18.359 30.957V30.959L18.3587 30.961V30.9628L18.3585 30.9649V30.9666L18.3582 30.9687V30.9707L18.358 30.9725L18.3577 30.9745V30.9763L18.3575 30.9783V30.9801L18.3572 30.9821L18.357 30.9841V30.9859L18.3567 30.988L18.3562 30.9956H18.3565C18.2896 32.2613 17.2234 33.1207 16.1055 33.1318V35.9912C17.3681 36.0034 18.6591 35.5409 19.711 34.4859C20.6153 33.5785 21.1749 32.344 21.2075 30.9956V30.9935L21.2078 30.9918V30.9897V30.988L21.208 30.9839V30.9821V30.9811L21.2083 30.9773V30.9753L21.2085 30.9694V30.9676L21.2088 30.9598V30.958L21.209 30.9522V30.9501V30.9484L21.2093 30.9443V30.9425V30.9405V30.9387V30.9374V30.9367L21.2095 30.9347V30.9329V30.9308V30.9288V30.927V30.925V30.923L21.2098 30.9151V30.9131V30.9113V30.9093V30.9072V30.9055V30.9034V30.9014L21.21 30.8935V30.8915V30.8895V30.8877V30.8857V30.8836V30.8816V30.8798V30.8778V30.8758V30.874V30.872V28.6113H18.3608V30.8712H18.3618Z" fill="white"/>
</mask>
<g mask="url(#mask5_123_2730)">
<path d="M21.2112 28.6113H16.1074V36.0052H21.2112V28.6113Z" fill="white"/>
</g>
<defs>
<linearGradient id="paint0_linear_123_2730" x1="25.2106" y1="13.7918" x2="24.7306" y2="28.3397" gradientUnits="userSpaceOnUse">
<stop stop-color="white"/>
<stop offset="1" stop-color="white" stop-opacity="0"/>
</linearGradient>
</defs>
</svg>
